<svg width="16" height="16" viewBox="0 0 16 16" fill="none" xmlns="http://www.w3.org/2000/svg">
<path d="M8.66666 4H7.33333V4.66667C7.33333 4.84348 7.40357 5.01305 7.52859 5.13807C7.65361 5.2631 7.82318 5.33333 7.99999 5.33333C8.17681 5.33333 8.34638 5.2631 8.4714 5.13807C8.59642 5.01305 8.66666 4.84348 8.66666 4.66667V4Z" fill="white"/>
<path fill-rule="evenodd" clip-rule="evenodd" d="M4 1.33334V2.66668H4.66667V4.66668C4.66667 5.55073 5.01786 6.39858 5.64298 7.0237C6.2681 7.64882 7.11595 8.00001 8 8.00001C7.11595 8.00001 6.2681 8.3512 5.64298 8.97632C5.01786 9.60144 4.66667 10.4493 4.66667 11.3333V13.3333H4V14.6667H12V13.3333H11.3333V11.3333C11.3333 10.4493 10.9821 9.60144 10.357 8.97632C9.7319 8.3512 8.88406 8.00001 8 8.00001C8.43774 8.00001 8.87119 7.91379 9.27561 7.74628C9.68003 7.57876 10.0475 7.33323 10.357 7.0237C10.6666 6.71417 10.9121 6.34671 11.0796 5.94229C11.2471 5.53787 11.3333 5.10442 11.3333 4.66668V2.66668H12V1.33334H4ZM6 2.66668H10V4.66668C10 5.19711 9.78929 5.70582 9.41421 6.08089C9.03914 6.45596 8.53043 6.66668 8 6.66668C7.46957 6.66668 6.96086 6.45596 6.58579 6.08089C6.21071 5.70582 6 5.19711 6 4.66668V2.66668ZM6 11.3333V13.3333H10V11.3333C10 10.8029 9.78929 10.2942 9.41421 9.91913C9.03914 9.54406 8.53043 9.33334 8 9.33334C7.46957 9.33334 6.96086 9.54406 6.58579 9.91913C6.21071 10.2942 6 10.8029 6 11.3333Z" fill="white"/>
</svg>
