<svg width="12" height="12" viewBox="0 0 12 12" fill="none" xmlns="http://www.w3.org/2000/svg">
<path d="M4.283 2.98C4.24724 2.73367 4.2649 2.48253 4.33478 2.24363C4.40466 2.00473 4.52512 1.78367 4.688 1.59544C4.85087 1.40722 5.05233 1.25624 5.27871 1.15276C5.50509 1.04928 5.75109 0.995728 6 0.995728C6.24891 0.995728 6.4949 1.04928 6.72129 1.15276C6.94767 1.25624 7.14913 1.40722 7.312 1.59544C7.47488 1.78367 7.59534 2.00473 7.66522 2.24363C7.7351 2.48253 7.75276 2.73367 7.717 2.98L7.141 7.01C7.10113 7.28416 6.96388 7.53481 6.75436 7.71607C6.54483 7.89733 6.27705 7.99708 6 7.99708C5.72295 7.99708 5.45517 7.89733 5.24564 7.71607C5.03612 7.53481 4.89887 7.28416 4.859 7.01L4.283 2.98Z" fill="white"/>
<path d="M7 10C7 10.2652 6.89464 10.5196 6.70711 10.7071C6.51957 10.8946 6.26522 11 6 11C5.73478 11 5.48043 10.8946 5.29289 10.7071C5.10536 10.5196 5 10.2652 5 10C5 9.73478 5.10536 9.48043 5.29289 9.29289C5.48043 9.10536 5.73478 9 6 9C6.26522 9 6.51957 9.10536 6.70711 9.29289C6.89464 9.48043 7 9.73478 7 10Z" fill="white"/>
</svg>
