<svg width="15" height="15" viewBox="0 0 15 15" fill="none" xmlns="http://www.w3.org/2000/svg">
<path d="M13.9083 5.28749C13.6594 5.41426 13.3945 5.50677 13.1208 5.56249C13.2591 5.98637 13.3308 6.42914 13.3333 6.87499C13.3238 7.5146 13.1815 8.14526 12.9154 8.72697C12.6493 9.30868 12.2652 9.82873 11.7875 10.2542C11.7456 10.293 11.7122 10.3401 11.6892 10.3924C11.6663 10.4447 11.6543 10.5012 11.6542 10.5583V12.7833L9.82916 11.6208C9.77826 11.5886 9.72098 11.5679 9.66127 11.56C9.60157 11.5521 9.54086 11.5572 9.48333 11.575C8.84113 11.7744 8.17245 11.8756 7.5 11.875C4.28333 11.875 1.66666 9.63332 1.66666 6.87499C1.66666 4.11666 4.28333 1.87499 7.5 1.87499C8.14188 1.87491 8.78042 1.96753 9.39583 2.14999C9.42182 1.87336 9.48489 1.60148 9.58333 1.34166C8.90644 1.14422 8.20509 1.04323 7.5 1.04166C3.825 1.04166 0.833328 3.65832 0.833328 6.87499C0.833328 10.0917 3.825 12.7083 7.5 12.7083C8.18756 12.7075 8.87174 12.6122 9.53333 12.425L11.8375 13.8917C11.9004 13.932 11.973 13.9547 12.0477 13.9574C12.1224 13.96 12.1964 13.9425 12.262 13.9068C12.3276 13.871 12.3824 13.8182 12.4206 13.754C12.4588 13.6897 12.479 13.6164 12.4792 13.5417V10.7375C13.0005 10.2374 13.4165 9.63798 13.7028 8.97465C13.989 8.31131 14.1396 7.59742 14.1458 6.87499C14.1504 6.33664 14.0703 5.80093 13.9083 5.28749Z" fill="white"/>
<path d="M4.58334 6.45834C4.47283 6.45834 4.36685 6.50224 4.28871 6.58038C4.21057 6.65852 4.16667 6.7645 4.16667 6.87501C4.16667 6.98552 4.21057 7.0915 4.28871 7.16964C4.36685 7.24778 4.47283 7.29168 4.58334 7.29168H10.4167C10.5272 7.29168 10.6332 7.24778 10.7113 7.16964C10.7894 7.0915 10.8333 6.98552 10.8333 6.87501C10.8333 6.7645 10.7894 6.65852 10.7113 6.58038C10.6332 6.50224 10.5272 6.45834 10.4167 6.45834H4.58334Z" fill="white"/>
<path d="M5.93749 8.54166C5.82699 8.54166 5.72101 8.58555 5.64287 8.6637C5.56473 8.74184 5.52083 8.84782 5.52083 8.95832C5.52083 9.06883 5.56473 9.17481 5.64287 9.25295C5.72101 9.33109 5.82699 9.37499 5.93749 9.37499H9.06249C9.173 9.37499 9.27898 9.33109 9.35712 9.25295C9.43526 9.17481 9.47916 9.06883 9.47916 8.95832C9.47916 8.84782 9.43526 8.74184 9.35712 8.6637C9.27898 8.58555 9.173 8.54166 9.06249 8.54166H5.93749Z" fill="white"/>
<path d="M4.28374 4.79167C4.28374 4.90217 4.32764 5.00815 4.40578 5.08629C4.48392 5.16443 4.5899 5.20833 4.7004 5.20833H10.3004C10.3698 5.20708 10.4378 5.18851 10.4982 5.15431C10.5586 5.12011 10.6095 5.07136 10.6462 5.0125C10.4012 4.83242 10.1837 4.61767 10.0004 4.375H4.7004C4.5899 4.375 4.48392 4.4189 4.40578 4.49704C4.32764 4.57518 4.28374 4.68116 4.28374 4.79167Z" fill="white"/>
<path d="M12.5 4.58332C13.6506 4.58332 14.5833 3.65058 14.5833 2.49999C14.5833 1.3494 13.6506 0.416656 12.5 0.416656C11.3494 0.416656 10.4167 1.3494 10.4167 2.49999C10.4167 3.65058 11.3494 4.58332 12.5 4.58332Z" fill="white"/>
</svg>
