<svg width="15" height="10" viewBox="0 0 15 10" fill="none" xmlns="http://www.w3.org/2000/svg">
<g clip-path="url(#clip0_1_492)">
<path d="M8.48537 4.9916L9.94769 6.34359L11.9142 7.35994L12.2563 5.00013L11.9142 2.69354L9.91001 3.58639L8.48537 4.9916Z" fill="#00832D"/>
<path d="M0 7.14021V9.15111C0 9.61026 0.460781 9.98306 1.02855 9.98306H3.51469L4.02949 8.46367L3.51469 7.14021L1.80902 6.72382L5.85938e-05 7.14021H0Z" fill="#0066DA"/>
<path d="M3.51469 0L0 2.84284L1.80914 3.25825L3.51469 2.84284L4.02012 1.53739L3.51469 0Z" fill="#E94235"/>
<path d="M0 7.14126H3.51469V2.84277H5.85938e-05L0 7.14126Z" fill="#2684FC"/>
<path d="M14.1597 1.20371L11.9144 2.69356V7.35991L14.1689 8.85555C14.5064 9.06939 15.0001 8.87451 15.0001 8.5275V1.52513C15.0001 1.17428 14.4946 0.980342 14.1596 1.20375" fill="#00AC47"/>
<path d="M8.4855 4.9917V7.14042H3.51453V9.98326H10.8859C11.4536 9.98326 11.9143 9.61046 11.9143 9.15132V7.36004L8.4855 4.9917Z" fill="#00AC47"/>
<path d="M10.8859 0H3.51453V2.84284H8.4855V4.99156L11.9144 2.69346V0.83199C11.9144 0.372749 11.4536 4.73934e-05 10.8859 4.73934e-05" fill="#FFBA00"/>
</g>
<defs>
<clipPath id="clip0_1_492">
<rect width="15" height="10" fill="white"/>
</clipPath>
</defs>
</svg>
